# xmcd CD database file
#
# Track frame offsets:
#	150
#	28192
#	46285
#	66042
#	94382
#	129410
#	147222
#	176672
#	204485
#	221405
#
# Disc length: 3484 seconds
#
# Revision: 0
# Processed by: cddbd v1.5.1PL0 Copyright (c) Steve Scherf et al.
# Submitted via: CDex 1.51
#
DISCID=920d9a0a
DTITLE=Terumasa Hino - blues smiles
DYEAR=1992
DGENRE=Jazz
TTITLE0=blue smiles
TTITLE1=you are so beatiful
TTITLE2=smile
TTITLE3=i've never been in love before
TTITLE4=body and soul
TTITLE5=unfogettable
TTITLE6=alfie
TTITLE7=my one and only love
TTITLE8=bye bye blackbird
TTITLE9=my funny valentine
EXTD=YEAR: 1992
EXTT0=
EXTT1=
EXTT2=
EXTT3=
EXTT4=
EXTT5=
EXTT6=
EXTT7=
EXTT8=
EXTT9=
PLAYORDER=
